<svg xmlns="http://www.w3.org/2000/svg" viewBox="0 0 192 192" fill="none">
  <rect width="192" height="192" rx="32" fill="#0f172a"/>
  <rect x="40" y="40" width="16" height="16" rx="2" fill="#3b82f6"/>
  <rect x="60" y="40" width="16" height="16" rx="2" fill="#3b82f6"/>
  <rect x="80" y="40" width="16" height="16" rx="2" fill="#3b82f6"/>
  <rect x="40" y="60" width="16" height="16" rx="2" fill="#3b82f6"/>
  <rect x="80" y="60" width="16" height="16" rx="2" fill="#3b82f6"/>
  <rect x="40" y="80" width="16" height="16" rx="2" fill="#3b82f6"/>
  <rect x="60" y="80" width="16" height="16" rx="2" fill="#3b82f6"/>
  <rect x="80" y="80" width="16" height="16" rx="2" fill="#3b82f6"/>
  <rect x="116" y="40" width="16" height="16" rx="2" fill="#3b82f6"/>
  <rect x="136" y="40" width="16" height="16" rx="2" fill="#3b82f6"/>
  <rect x="116" y="60" width="16" height="16" rx="2" fill="#3b82f6"/>
  <rect x="136" y="60" width="16" height="16" rx="2" fill="#3b82f6"/>
  <rect x="116" y="80" width="16" height="16" rx="2" fill="#3b82f6"/>
  <rect x="40" y="116" width="16" height="16" rx="2" fill="#3b82f6"/>
  <rect x="60" y="116" width="16" height="16" rx="2" fill="#3b82f6"/>
  <rect x="80" y="116" width="16" height="16" rx="2" fill="#3b82f6"/>
  <rect x="40" y="136" width="16" height="16" rx="2" fill="#3b82f6"/>
  <rect x="80" y="136" width="16" height="16" rx="2" fill="#3b82f6"/>
  <rect x="116" y="116" width="16" height="16" rx="2" fill="#3b82f6"/>
  <rect x="136" y="116" width="16" height="16" rx="2" fill="#3b82f6"/>
  <rect x="136" y="136" width="16" height="16" rx="2" fill="#3b82f6"/>
  <rect x="60" y="60" width="16" height="16" rx="2" fill="#60a5fa"/>
  <rect x="136" y="80" width="16" height="16" rx="2" fill="#60a5fa"/>
  <rect x="60" y="136" width="16" height="16" rx="2" fill="#60a5fa"/>
</svg>
